{"title":"CLUB-K Container Missile System","uid":5542125,"size":99499924,"categoryP":"video","categoryS":"other","magnet":"?xt=urn:btih:cc1aee7043574f64e6cc07830ae689500ff14b88&amp;dn=CLUB-K+Container+Missile+System&amp;tr=udp%3A%2F%2Ftracker.openbittorrent.com%3A80&amp;tr=udp%3A%2F%2Fopen.demonii.com%3A1337&amp;tr=udp%3A%2F%2Ftracker.coppersurfer.tk%3A6969&amp;tr=udp%3A%2F%2Fexodus.desync.com%3A6969","seeders":0,"leechers":1,"uploader":"Nekit007","files":-1,"time":1273267377,"description":" &lt;a href=&quot;http://j&quot; rel=&quot;nofollow&quot; target=&quot;_NEW&quot;&gt;http://j&lt;/a&gt; .mp/aCtREg - site (remove space)\n\nThis computer render shows CMS in action\n\nVideo\nFormat                           : AVC\nFormat/Info                      : Advanced Video Codec\nFormat profile                   : &lt;a class=&quot;__cf_email__&quot; href=&quot;/cdn-cgi/l/email-protection&quot; data-cfemail=&quot;8cc4e5ebe4ccc0bfa2bd&quot;&gt;[email&amp;#160;protected]&lt;/a&gt;&lt;script cf-hash='f9e31' type=&quot;text/javascript&quot;&gt;\n/* &lt;![CDATA[ */!function(){try{var t=&quot;currentScript&quot;in document?document.currentScript:function(){for(var t=document.getElementsByTagName(&quot;script&quot;),e=t.length;e--;)if(t[e].getAttribute(&quot;cf-hash&quot;))return t[e]}();if(t&amp;&amp;t.previousSibling){var e,r,n,i,c=t.previousSibling,a=c.getAttribute(&quot;data-cfemail&quot;);if(a){for(e=&quot;&quot;,r=parseInt(a.substr(0,2),16),n=2;a.length-n;n+=2)i=parseInt(a.substr(n,2),16)^r,e+=String.fromCharCode(i);e=document.createTextNode(e),c.parentNode.replaceChild(e,c)}}}catch(u){}}();/* ]]&gt; */&lt;/script&gt;\nFormat settings, CABAC           : Yes\nCodec ID/Info                    : Advanced Video Coding\nDuration                         : 6mn 14s\nBit rate mode                    : Variable\nBit rate                         : 2 002 Kbps\nMaximum bit rate                 : 7 053 Kbps\nWidth                            : 1 280 pixels\nHeight                           : 720 pixels\nDisplay aspect ratio             : 16:9\nFrame rate mode                  : Constant\nFrame rate                       : 29.970 fps\nResolution                       : 8 bits\nColorimetry                      : 4:2:0\nScan type                        : Progressive\nBits/(Pixel*Frame)               : 0.072\nStream size                      : 89.2 MiB (94%)\n\nAudio\nFormat                           : AAC\nFormat/Info                      : Advanced Audio Codec\nBit rate mode                    : Variable\nBit rate                         : 124 Kbps\nMaximum bit rate                 : 215 Kbps\nChannel(s)                       : 2 channels\nSampling rate                    : 44.1 KHz\nStream size                      : 5.53 MiB (6%)","torrent":{"xt":"urn:btih:cc1aee7043574f64e6cc07830ae689500ff14b88","amp;dn":"CLUB-K+Container+Missile+System","amp;tr":["udp%3A%2F%2Ftracker.openbittorrent.com%3A80","udp%3A%2F%2Fopen.demonii.com%3A1337","udp%3A%2F%2Ftracker.coppersurfer.tk%3A6969","udp%3A%2F%2Fexodus.desync.com%3A6969"],"infoHash":"cc1aee7043574f64e6cc07830ae689500ff14b88","infoHashBuffer":{"type":"Buffer","data":[204,26,238,112,67,87,79,100,230,204,7,131,10,230,137,80,15,241,75,136]},"announce":[],"urlList":[]}}